<svg width="40" height="40" viewBox="0 0 40 40" fill="none" xmlns="http://www.w3.org/2000/svg">
<g clip-path="url(#clip0_42_37)">
<path d="M18.3335 30H21.6668V26.6666H18.3335V30ZM20.0002 3.33331C10.8002 3.33331 3.3335 10.8 3.3335 20C3.3335 29.2 10.8002 36.6666 20.0002 36.6666C29.2002 36.6666 36.6668 29.2 36.6668 20C36.6668 10.8 29.2002 3.33331 20.0002 3.33331ZM20.0002 33.3333C12.6502 33.3333 6.66683 27.35 6.66683 20C6.66683 12.65 12.6502 6.66665 20.0002 6.66665C27.3502 6.66665 33.3335 12.65 33.3335 20C33.3335 27.35 27.3502 33.3333 20.0002 33.3333ZM20.0002 9.99998C16.3168 9.99998 13.3335 12.9833 13.3335 16.6666H16.6668C16.6668 14.8333 18.1668 13.3333 20.0002 13.3333C21.8335 13.3333 23.3335 14.8333 23.3335 16.6666C23.3335 20 18.3335 19.5833 18.3335 25H21.6668C21.6668 21.25 26.6668 20.8333 26.6668 16.6666C26.6668 12.9833 23.6835 9.99998 20.0002 9.99998Z" fill="currentColor"/>
</g>
<defs>
<clipPath id="clip0_42_37">
<rect width="40" height="40" fill="white"/>
</clipPath>
</defs>
</svg>
