<svg width="40" height="40" viewBox="0 0 40 40" fill="none" xmlns="http://www.w3.org/2000/svg">
<g clip-path="url(#clip0_42_56)">
<path d="M18 8.16665C18 7.06665 18.9 6.16665 20 6.16665C21.1 6.16665 22 7.06665 22 8.16665L21.9833 14.6833L25 17.6666V8.33331C25 5.56665 22.7667 3.33331 20 3.33331C17.4333 3.33331 15.35 5.26665 15.0667 7.74998L18 10.6833V8.16665V8.16665ZM31.6667 18.3333H28.8333C28.8333 19.3 28.6667 20.2166 28.3833 21.0666L30.5 23.1833C31.2333 21.7166 31.6667 20.0666 31.6667 18.3333ZM7.35 4.76665L5 7.11665L15 17.1166V18.3333C15 21.1 17.2333 23.3333 20 23.3333C20.3833 23.3333 20.7333 23.2833 21.0833 23.2L23.85 25.9666C22.6667 26.5166 21.35 26.8333 20 26.8333C15.4 26.8333 11.1667 23.3333 11.1667 18.3333H8.33333C8.33333 24.0166 12.8667 28.7166 18.3333 29.5333V35H21.6667V29.5333C23.1833 29.3166 24.6167 28.7833 25.9167 28.0333L32.9167 35.0333L35.2667 32.6833L7.35 4.76665Z" fill="white"/>
</g>
<defs>
<clipPath id="clip0_42_56">
<rect width="40" height="40" fill="white"/>
</clipPath>
</defs>
</svg>
