<svg width="40" height="40" viewBox="0 0 40 40" fill="none" xmlns="http://www.w3.org/2000/svg">
<g clip-path="url(#clip0_42_30)">
<path d="M20.0002 23.3333C22.7668 23.3333 25.0002 21.1 25.0002 18.3333V8.33331C25.0002 5.56665 22.7668 3.33331 20.0002 3.33331C17.2335 3.33331 15.0002 5.56665 15.0002 8.33331V18.3333C15.0002 21.1 17.2335 23.3333 20.0002 23.3333ZM18.3335 8.33331C18.3335 7.41665 19.0835 6.66665 20.0002 6.66665C20.9168 6.66665 21.6668 7.41665 21.6668 8.33331V18.3333C21.6668 19.25 20.9168 20 20.0002 20C19.0835 20 18.3335 19.25 18.3335 18.3333V8.33331ZM28.3335 18.3333C28.3335 22.9333 24.6002 26.6666 20.0002 26.6666C15.4002 26.6666 11.6668 22.9333 11.6668 18.3333H8.3335C8.3335 24.2166 12.6835 29.05 18.3335 29.8666V35H21.6668V29.8666C27.3168 29.05 31.6668 24.2166 31.6668 18.3333H28.3335V18.3333Z" fill="white"/>
</g>
<defs>
<clipPath id="clip0_42_30">
<rect width="40" height="40" fill="white"/>
</clipPath>
</defs>
</svg>
