<svg width="32" height="32" viewBox="0 0 32 32" fill="none" xmlns="http://www.w3.org/2000/svg">
<g clip-path="url(#clip0_281_756)">
<path d="M15.9997 7.99999C17.4663 7.99999 18.6663 9.19999 18.6663 10.6667C18.6663 12.1333 17.4663 13.3333 15.9997 13.3333C14.533 13.3333 13.333 12.1333 13.333 10.6667C13.333 9.19999 14.533 7.99999 15.9997 7.99999ZM15.9997 21.3333C19.5997 21.3333 23.733 23.0533 23.9997 24H7.99967C8.30634 23.04 12.413 21.3333 15.9997 21.3333ZM15.9997 5.33333C13.053 5.33333 10.6663 7.71999 10.6663 10.6667C10.6663 13.6133 13.053 16 15.9997 16C18.9463 16 21.333 13.6133 21.333 10.6667C21.333 7.71999 18.9463 5.33333 15.9997 5.33333ZM15.9997 18.6667C12.4397 18.6667 5.33301 20.4533 5.33301 24V26.6667H26.6663V24C26.6663 20.4533 19.5597 18.6667 15.9997 18.6667Z" fill="currentColor"/>
</g>
<defs>
<clipPath id="clip0_281_756">
<rect width="32" height="32" fill="white"/>
</clipPath>
</defs>
</svg>
