<svg width="30" height="30" viewBox="0 0 30 30" fill="none" xmlns="http://www.w3.org/2000/svg">
<path d="M12.4996 10.6251V19.3751C12.4996 19.8876 13.0871 20.1876 13.4996 19.8751L19.3371 15.5001C19.6746 15.2501 19.6746 14.7501 19.3371 14.5001L13.4996 10.1251C13.0871 9.81257 12.4996 10.1126 12.4996 10.6251ZM13.7496 4.03757C13.7496 3.23757 13.0121 2.62507 12.2371 2.80007C10.8371 3.12507 9.51208 3.67507 8.33708 4.42507C7.67458 4.85007 7.57458 5.80007 8.13708 6.36257C8.53708 6.76257 9.17458 6.86257 9.64958 6.56257C10.6121 5.95007 11.6746 5.50007 12.8246 5.25007C13.3746 5.12507 13.7496 4.61257 13.7496 4.03757V4.03757ZM6.37458 8.13757C5.79958 7.57507 4.86208 7.66257 4.43708 8.33757C3.68708 9.51257 3.13708 10.8376 2.81208 12.2376C2.63708 13.0126 3.23708 13.7501 4.03708 13.7501C4.59958 13.7501 5.12458 13.3751 5.23708 12.8251C5.48708 11.6876 5.94958 10.6126 6.54958 9.66257C6.87458 9.17507 6.77458 8.53757 6.37458 8.13757V8.13757ZM4.03708 16.2501C3.23708 16.2501 2.62458 16.9876 2.79958 17.7626C3.12458 19.1626 3.67458 20.4751 4.42458 21.6626C4.84958 22.3376 5.79958 22.4251 6.36208 21.8626C6.76208 21.4626 6.86208 20.8251 6.54958 20.3501C5.93708 19.4001 5.48708 18.3376 5.23708 17.1876C5.12458 16.6251 4.61208 16.2501 4.03708 16.2501V16.2501ZM8.33708 25.5626C9.52458 26.3126 10.8371 26.8626 12.2371 27.1876C13.0121 27.3626 13.7496 26.7501 13.7496 25.9626C13.7496 25.4001 13.3746 24.8751 12.8246 24.7626C11.6871 24.5126 10.6121 24.0501 9.66208 23.4501C9.17458 23.1501 8.54958 23.2376 8.14958 23.6501C7.57458 24.2001 7.66208 25.1376 8.33708 25.5626V25.5626ZM27.4996 15.0001C27.4996 20.9126 23.3746 25.8876 17.8371 27.1751C17.0621 27.3626 16.3121 26.7501 16.3121 25.9501C16.3121 25.3751 16.6996 24.8751 17.2496 24.7376C21.6871 23.7126 24.9996 19.7376 24.9996 15.0001C24.9996 10.2626 21.6871 6.28757 17.2496 5.26257C16.6996 5.13757 16.3121 4.62507 16.3121 4.05007C16.3121 3.25007 17.0621 2.63757 17.8371 2.82507C23.3746 4.11257 27.4996 9.08757 27.4996 15.0001Z" fill="currentColor"/>
</svg>
