<svg width="40" height="40" viewBox="0 0 40 40" fill="none" xmlns="http://www.w3.org/2000/svg">
<g clip-path="url(#clip0_42_42)">
<path d="M32.3836 21.6333C32.4502 21.1 32.5002 20.5666 32.5002 20C32.5002 19.4333 32.4502 18.9 32.3836 18.3666L35.9002 15.6166C36.2169 15.3666 36.3002 14.9166 36.1002 14.55L32.7669 8.78331C32.6169 8.51665 32.3336 8.36665 32.0336 8.36665C31.9336 8.36665 31.8336 8.38331 31.7502 8.41665L27.6002 10.0833C26.7336 9.41665 25.8002 8.86665 24.7836 8.44998L24.1502 4.03331C24.1002 3.63331 23.7502 3.33331 23.3336 3.33331H16.6669C16.2502 3.33331 15.9002 3.63331 15.8502 4.03331L15.2169 8.44998C14.2002 8.86665 13.2669 9.43331 12.4002 10.0833L8.25022 8.41665C8.15022 8.38331 8.05022 8.36665 7.95022 8.36665C7.66689 8.36665 7.38355 8.51665 7.23355 8.78331L3.90022 14.55C3.68355 14.9166 3.78355 15.3666 4.10022 15.6166L7.61689 18.3666C7.55022 18.9 7.50022 19.45 7.50022 20C7.50022 20.55 7.55022 21.1 7.61689 21.6333L4.10022 24.3833C3.78355 24.6333 3.70022 25.0833 3.90022 25.45L7.23355 31.2166C7.38355 31.4833 7.66689 31.6333 7.96689 31.6333C8.06689 31.6333 8.16689 31.6166 8.25022 31.5833L12.4002 29.9166C13.2669 30.5833 14.2002 31.1333 15.2169 31.55L15.8502 35.9666C15.9002 36.3666 16.2502 36.6666 16.6669 36.6666H23.3336C23.7502 36.6666 24.1002 36.3666 24.1502 35.9666L24.7836 31.55C25.8002 31.1333 26.7336 30.5666 27.6002 29.9166L31.7502 31.5833C31.8502 31.6166 31.9502 31.6333 32.0502 31.6333C32.3336 31.6333 32.6169 31.4833 32.7669 31.2166L36.1002 25.45C36.3002 25.0833 36.2169 24.6333 35.9002 24.3833L32.3836 21.6333ZM29.0836 18.7833C29.1502 19.3 29.1669 19.65 29.1669 20C29.1669 20.35 29.1336 20.7166 29.0836 21.2166L28.8502 23.1L30.3336 24.2666L32.1336 25.6666L30.9669 27.6833L28.8502 26.8333L27.1169 26.1333L25.6169 27.2666C24.9002 27.8 24.2169 28.2 23.5336 28.4833L21.7669 29.2L21.5002 31.0833L21.1669 33.3333H18.8336L18.5169 31.0833L18.2502 29.2L16.4836 28.4833C15.7669 28.1833 15.1002 27.8 14.4336 27.3L12.9169 26.1333L11.1502 26.85L9.03355 27.7L7.86689 25.6833L9.66689 24.2833L11.1502 23.1166L10.9169 21.2333C10.8669 20.7166 10.8336 20.3333 10.8336 20C10.8336 19.6666 10.8669 19.2833 10.9169 18.7833L11.1502 16.9L9.66689 15.7333L7.86689 14.3333L9.03355 12.3166L11.1502 13.1666L12.8836 13.8666L14.3836 12.7333C15.1002 12.2 15.7836 11.8 16.4669 11.5166L18.2336 10.8L18.5002 8.91665L18.8336 6.66665H21.1502L21.4669 8.91665L21.7336 10.8L23.5002 11.5166C24.2169 11.8166 24.8836 12.2 25.5502 12.7L27.0669 13.8666L28.8336 13.15L30.9502 12.3L32.1169 14.3166L30.3336 15.7333L28.8502 16.9L29.0836 18.7833ZM20.0002 13.3333C16.3169 13.3333 13.3336 16.3166 13.3336 20C13.3336 23.6833 16.3169 26.6666 20.0002 26.6666C23.6836 26.6666 26.6669 23.6833 26.6669 20C26.6669 16.3166 23.6836 13.3333 20.0002 13.3333ZM20.0002 23.3333C18.1669 23.3333 16.6669 21.8333 16.6669 20C16.6669 18.1666 18.1669 16.6666 20.0002 16.6666C21.8336 16.6666 23.3336 18.1666 23.3336 20C23.3336 21.8333 21.8336 23.3333 20.0002 23.3333Z" fill="currentColor"/>
</g>
<defs>
<clipPath id="clip0_42_42">
<rect width="40" height="40" fill="white"/>
</clipPath>
</defs>
</svg>
