<svg width="40" height="40" viewBox="0 0 40 40" fill="none" xmlns="http://www.w3.org/2000/svg">
<g clip-path="url(#clip0_42_60)">
<path d="M7.2333 4.88336L4.8833 7.23336L12.15 14.5L11.6666 15H4.99997V25H11.6666L20 33.3334V22.35L26.9666 29.3167C25.8833 30.1334 24.6666 30.7834 23.3333 31.1667V34.6C25.5666 34.1 27.6166 33.0667 29.35 31.6834L32.7666 35.1L35.1166 32.75L7.2333 4.88336ZM16.6666 25.2834L13.05 21.6667H8.3333V18.3334H13.05L14.5166 16.8667L16.6666 19.0167V25.2834ZM31.6666 20C31.6666 21.3667 31.4166 22.6834 30.9833 23.9L33.5333 26.45C34.4666 24.5 35 22.3167 35 20C35 12.8667 30.0166 6.90003 23.3333 5.38336V8.81669C28.15 10.25 31.6666 14.7167 31.6666 20ZM20 6.66669L16.8666 9.80003L20 12.9334V6.66669ZM27.5 20C27.5 17.05 25.8 14.5167 23.3333 13.2834V16.2667L27.4666 20.4C27.4833 20.2667 27.5 20.1334 27.5 20Z" fill="white"/>
</g>
<defs>
<clipPath id="clip0_42_60">
<rect width="40" height="40" fill="white"/>
</clipPath>
</defs>
</svg>
