<svg width="40" height="40" viewBox="0 0 40 40" fill="none" xmlns="http://www.w3.org/2000/svg">
<g clip-path="url(#clip0_41_22)">
<path d="M5 15V25H11.6667L20 33.3334V6.6667L11.6667 15H5ZM16.6667 14.7167V25.2834L13.05 21.6667H8.33333V18.3334H13.05L16.6667 14.7167ZM27.5 20C27.5 17.05 25.8 14.5167 23.3333 13.2834V26.7C25.8 25.4834 27.5 22.95 27.5 20ZM23.3333 5.38336V8.8167C28.15 10.25 31.6667 14.7167 31.6667 20C31.6667 25.2834 28.15 29.75 23.3333 31.1834V34.6167C30.0167 33.1 35 27.1334 35 20C35 12.8667 30.0167 6.90003 23.3333 5.38336V5.38336Z" fill="white"/>
</g>
<defs>
<clipPath id="clip0_41_22">
<rect width="40" height="40" fill="white"/>
</clipPath>
</defs>
</svg>
