<svg width="30" height="30" viewBox="0 0 30 30" fill="none" xmlns="http://www.w3.org/2000/svg">
<path d="M3.75 12.5001V17.5001C3.75 18.1876 4.3125 18.7501 5 18.7501H8.75L12.8625 22.8626C13.65 23.6501 15 23.0876 15 21.9751V8.01261C15 6.90011 13.65 6.33761 12.8625 7.12511L8.75 11.2501H5C4.3125 11.2501 3.75 11.8126 3.75 12.5001ZM20.625 15.0001C20.625 12.7876 19.35 10.8876 17.5 9.96261V20.0251C19.35 19.1126 20.625 17.2126 20.625 15.0001ZM17.5 5.56261V5.81261C17.5 6.28761 17.8125 6.70011 18.25 6.87511C21.475 8.16261 23.75 11.3251 23.75 15.0001C23.75 18.6751 21.475 21.8376 18.25 23.1251C17.8 23.3001 17.5 23.7126 17.5 24.1876V24.4376C17.5 25.2251 18.2875 25.7751 19.0125 25.5001C23.25 23.8876 26.25 19.8001 26.25 15.0001C26.25 10.2001 23.25 6.11261 19.0125 4.50011C18.2875 4.21261 17.5 4.77511 17.5 5.56261V5.56261Z" fill="white"/>
</svg>
