<svg width="40" height="40" viewBox="0 0 40 40" fill="none" xmlns="http://www.w3.org/2000/svg">
<g clip-path="url(#clip0_41_6)">
<path d="M11.2665 8.06669L8.2665 5.08335L5.9165 7.43335L8.89984 10.4167L11.2665 8.06669ZM1.6665 17.5H6.6665V20.8334H1.6665V17.5ZM18.3332 0.916687H21.6665V5.83335H18.3332V0.916687ZM31.7332 5.07502L34.0798 7.42002L31.0965 10.4034L28.7515 8.05669L31.7332 5.07502ZM28.7332 30.2667L31.7165 33.2667L34.0665 30.9167L31.0665 27.9334L28.7332 30.2667ZM33.3332 17.5H38.3332V20.8334H33.3332V17.5ZM19.9998 9.16669C14.4832 9.16669 9.99984 13.65 9.99984 19.1667C9.99984 24.6834 14.4832 29.1667 19.9998 29.1667C25.5165 29.1667 29.9998 24.6834 29.9998 19.1667C29.9998 13.65 25.5165 9.16669 19.9998 9.16669ZM19.9998 25.8334C16.3165 25.8334 13.3332 22.85 13.3332 19.1667C13.3332 15.4834 16.3165 12.5 19.9998 12.5C23.6832 12.5 26.6665 15.4834 26.6665 19.1667C26.6665 22.85 23.6832 25.8334 19.9998 25.8334ZM18.3332 32.5H21.6665V37.4167H18.3332V32.5ZM5.9165 30.9L8.2665 33.25L11.2498 30.25L8.89984 27.9L5.9165 30.9Z" fill="white"/>
</g>
<defs>
<clipPath id="clip0_41_6">
<rect width="40" height="40" fill="white"/>
</clipPath>
</defs>
</svg>
